# xmcd CD database file
#
# Track frame offsets:
#	150
#	15213
#	28927
#	44833
#	57256
#	81533
#	99208
#	120101
#	135482
#	149461
#	161773
#	184431
#
# Disc length: 2763 seconds
#
# Revision: 0
# Processed by: cddbd v1.5.1PL0 Copyright (c) Steve Scherf et al.
# Submitted via: CDex 1.51
#
DISCID=a10ac90c
DTITLE=John Hughey - Lost in the Feeling
DYEAR=2005
DGENRE=Country
TTITLE0=Lost in the Feeling
TTITLE1=The Kind of Love I Can't Forget
TTITLE2=I Just Destroyed the World (I'm Living In)
TTITLE3=Hang Your Head in Shame
TTITLE4=Sweet Dreams
TTITLE5=Undecided
TTITLE6=A Way to Survive
TTITLE7=I'll Keep On Lovin' You
TTITLE8=Kindly Keep It Country
TTITLE9=Charmaine
TTITLE10=Midnight in Old Amarillo
TTITLE11=No One Will Ever Know
EXTD=YEAR: 2005
EXTT0=
EXTT1=
EXTT2=
EXTT3=
EXTT4=
EXTT5=
EXTT6=
EXTT7=
EXTT8=
EXTT9=
EXTT10=
EXTT11=
PLAYORDER=
